<svg width="88" height="29" viewBox="0 0 88 29" fill="none" xmlns="http://www.w3.org/2000/svg">
<mask id="path-1-outside-1_211_4" maskUnits="userSpaceOnUse" x="46" y="8.27002" width="42" height="14" fill="black">
<rect fill="white" x="46" y="8.27002" width="42" height="14"/>
<path d="M51.438 20.3062C50.723 20.3062 50.0716 20.2133 49.4839 20.0274C48.8962 19.8317 48.4016 19.5773 48 19.2643L48.7052 18.0902C49.0579 18.3837 49.4546 18.6234 49.8953 18.8093C50.3361 18.9952 50.8503 19.0881 51.438 19.0881C52.1433 19.0881 52.7016 18.9414 53.113 18.6479C53.5244 18.3544 53.7301 17.9581 53.7301 17.4591C53.7301 17.1754 53.6713 16.9259 53.5538 16.7107C53.4362 16.4856 53.206 16.2704 52.8632 16.0649C52.5302 15.8497 52.0355 15.6198 51.3793 15.3752C50.674 15.1012 50.1108 14.8273 49.6896 14.5533C49.2685 14.2696 48.9648 13.9516 48.7787 13.5994C48.6024 13.2374 48.5142 12.8118 48.5142 12.3226C48.5142 11.8334 48.6465 11.3931 48.9109 11.0018C49.1852 10.6006 49.5819 10.2827 50.101 10.0478C50.63 9.80324 51.2666 9.68094 52.011 9.68094C52.6183 9.68094 53.162 9.74454 53.6419 9.87173C54.1317 9.98913 54.6067 10.1604 55.0671 10.3854L54.5528 11.5741C54.2198 11.3784 53.828 11.217 53.3775 11.0898C52.9367 10.9528 52.4714 10.8844 51.9817 10.8844C51.3352 10.8844 50.8259 11.0115 50.4536 11.2659C50.0814 11.5203 49.8953 11.8481 49.8953 12.2492C49.8953 12.5036 49.9492 12.7286 50.0569 12.9243C50.1647 13.12 50.3753 13.3108 50.6887 13.4967C51.012 13.6825 51.4919 13.8929 52.1286 14.1277C52.8926 14.4114 53.495 14.7099 53.9358 15.0229C54.3863 15.336 54.7047 15.6785 54.8908 16.0502C55.0769 16.4123 55.1699 16.8281 55.1699 17.2977C55.1699 17.9336 55.0083 18.4767 54.6851 18.9267C54.3716 19.3768 53.9309 19.7192 53.3628 19.954C52.8044 20.1888 52.1629 20.3062 51.438 20.3062Z"/>
<path d="M60.009 20.3062C59.3724 20.3062 58.7945 20.1448 58.2753 19.8219C57.7562 19.4991 57.3399 19.0441 57.0265 18.4571C56.7228 17.8603 56.571 17.1607 56.571 16.3584C56.571 15.5953 56.7228 14.9104 57.0265 14.3038C57.3399 13.6972 57.766 13.2178 58.3047 12.8656C58.8532 12.5036 59.4801 12.3226 60.1854 12.3226C60.6261 12.3226 61.0228 12.4009 61.3754 12.5574C61.7379 12.7042 62.0513 12.8901 62.3158 13.1151V12.4987H63.5205V18.281C63.5205 18.6528 63.6087 18.8974 63.785 19.0148C63.9711 19.1224 64.1719 19.1762 64.3874 19.1762L64.1082 20.2035C63.1679 20.2035 62.5998 19.8219 62.4039 19.0588C62.1786 19.3719 61.8701 19.6605 61.4783 19.9247C61.0963 20.179 60.6065 20.3062 60.009 20.3062ZM60.3029 19.1322C60.6751 19.1322 61.0277 19.0441 61.3608 18.868C61.6938 18.6821 61.9729 18.4522 62.1982 18.1782V14.0837C61.9338 13.8978 61.6399 13.751 61.3167 13.6434C61.0032 13.526 60.6702 13.4673 60.3176 13.4673C59.8474 13.4673 59.4311 13.5896 59.0687 13.8342C58.7161 14.069 58.4369 14.4017 58.2313 14.8322C58.0256 15.2529 57.9227 15.7469 57.9227 16.3144C57.9227 16.8623 58.0256 17.3515 58.2313 17.782C58.4369 18.2027 58.721 18.5354 59.0834 18.78C59.4458 19.0148 59.8523 19.1322 60.3029 19.1322Z"/>
<path d="M68.4747 20.3062C68.0241 20.3062 67.6176 20.2231 67.2552 20.0567C66.8928 19.8806 66.6038 19.6018 66.3883 19.2202C66.1826 18.8387 66.0798 18.3446 66.0798 17.738V9.27002H67.4021V17.6059C67.4021 18.1342 67.5099 18.5256 67.7254 18.78C67.9506 19.0343 68.2592 19.1615 68.651 19.1615C68.8371 19.1615 69.0183 19.142 69.1946 19.1028C69.3807 19.0539 69.5374 19.0001 69.6648 18.9414L69.988 20.0127C69.8117 20.091 69.5913 20.1595 69.3268 20.2182C69.0722 20.2769 68.7881 20.3062 68.4747 20.3062Z"/>
<path d="M74.2349 20.3062C73.5101 20.3062 72.8587 20.1399 72.2808 19.8073C71.7029 19.4648 71.2475 18.9952 70.9144 18.3984C70.5912 17.7918 70.4296 17.0971 70.4296 16.3144C70.4296 15.4926 70.5961 14.7832 70.9291 14.1864C71.2621 13.5896 71.7176 13.1298 72.2955 12.8069C72.8734 12.484 73.5199 12.3226 74.2349 12.3226C74.95 12.3226 75.5915 12.484 76.1596 12.8069C76.7375 13.1298 77.193 13.5896 77.526 14.1864C77.8689 14.7735 78.0403 15.473 78.0403 16.2851C78.0403 17.0971 77.8738 17.8065 77.5407 18.4131C77.2077 19.0099 76.7522 19.4746 76.1743 19.8073C75.6062 20.1399 74.9598 20.3062 74.2349 20.3062ZM74.2349 19.1322C75.0087 19.1322 75.6111 18.8729 76.0421 18.3544C76.4731 17.826 76.6886 17.146 76.6886 16.3144C76.6886 15.8057 76.5808 15.3409 76.3653 14.9202C76.1498 14.4897 75.856 14.1473 75.4838 13.8929C75.1214 13.6287 74.7051 13.4967 74.2349 13.4967C73.4611 13.4967 72.8587 13.751 72.4278 14.2598C71.9968 14.7686 71.7813 15.4436 71.7813 16.2851C71.7813 16.7938 71.889 17.2683 72.1045 17.7086C72.32 18.1391 72.609 18.4864 72.9714 18.7506C73.3436 19.005 73.7648 19.1322 74.2349 19.1322Z"/>
<path d="M80.5794 20.1301V12.4987H81.8576V13.7755C82.1319 13.3646 82.4796 13.0221 82.9008 12.7482C83.3318 12.4645 83.8411 12.3226 84.4288 12.3226C85.2908 12.3226 85.9323 12.5819 86.3535 13.1004C86.7845 13.619 87 14.3038 87 15.155V20.1301H85.6777V15.3018C85.6777 14.7539 85.5454 14.3136 85.281 13.981C85.0263 13.6483 84.6688 13.482 84.2084 13.482C83.7579 13.482 83.3318 13.6434 82.9302 13.9663C82.5286 14.2794 82.1858 14.6512 81.9017 15.0816V20.1301H80.5794Z"/>
</mask>
<path d="M51.438 20.3062C50.723 20.3062 50.0716 20.2133 49.4839 20.0274C48.8962 19.8317 48.4016 19.5773 48 19.2643L48.7052 18.0902C49.0579 18.3837 49.4546 18.6234 49.8953 18.8093C50.3361 18.9952 50.8503 19.0881 51.438 19.0881C52.1433 19.0881 52.7016 18.9414 53.113 18.6479C53.5244 18.3544 53.7301 17.9581 53.7301 17.4591C53.7301 17.1754 53.6713 16.9259 53.5538 16.7107C53.4362 16.4856 53.206 16.2704 52.8632 16.0649C52.5302 15.8497 52.0355 15.6198 51.3793 15.3752C50.674 15.1012 50.1108 14.8273 49.6896 14.5533C49.2685 14.2696 48.9648 13.9516 48.7787 13.5994C48.6024 13.2374 48.5142 12.8118 48.5142 12.3226C48.5142 11.8334 48.6465 11.3931 48.9109 11.0018C49.1852 10.6006 49.5819 10.2827 50.101 10.0478C50.63 9.80324 51.2666 9.68094 52.011 9.68094C52.6183 9.68094 53.162 9.74454 53.6419 9.87173C54.1317 9.98913 54.6067 10.1604 55.0671 10.3854L54.5528 11.5741C54.2198 11.3784 53.828 11.217 53.3775 11.0898C52.9367 10.9528 52.4714 10.8844 51.9817 10.8844C51.3352 10.8844 50.8259 11.0115 50.4536 11.2659C50.0814 11.5203 49.8953 11.8481 49.8953 12.2492C49.8953 12.5036 49.9492 12.7286 50.0569 12.9243C50.1647 13.12 50.3753 13.3108 50.6887 13.4967C51.012 13.6825 51.4919 13.8929 52.1286 14.1277C52.8926 14.4114 53.495 14.7099 53.9358 15.0229C54.3863 15.336 54.7047 15.6785 54.8908 16.0502C55.0769 16.4123 55.1699 16.8281 55.1699 17.2977C55.1699 17.9336 55.0083 18.4767 54.6851 18.9267C54.3716 19.3768 53.9309 19.7192 53.3628 19.954C52.8044 20.1888 52.1629 20.3062 51.438 20.3062Z" fill="white"/>
<path d="M60.009 20.3062C59.3724 20.3062 58.7945 20.1448 58.2753 19.8219C57.7562 19.4991 57.3399 19.0441 57.0265 18.4571C56.7228 17.8603 56.571 17.1607 56.571 16.3584C56.571 15.5953 56.7228 14.9104 57.0265 14.3038C57.3399 13.6972 57.766 13.2178 58.3047 12.8656C58.8532 12.5036 59.4801 12.3226 60.1854 12.3226C60.6261 12.3226 61.0228 12.4009 61.3754 12.5574C61.7379 12.7042 62.0513 12.8901 62.3158 13.1151V12.4987H63.5205V18.281C63.5205 18.6528 63.6087 18.8974 63.785 19.0148C63.9711 19.1224 64.1719 19.1762 64.3874 19.1762L64.1082 20.2035C63.1679 20.2035 62.5998 19.8219 62.4039 19.0588C62.1786 19.3719 61.8701 19.6605 61.4783 19.9247C61.0963 20.179 60.6065 20.3062 60.009 20.3062ZM60.3029 19.1322C60.6751 19.1322 61.0277 19.0441 61.3608 18.868C61.6938 18.6821 61.9729 18.4522 62.1982 18.1782V14.0837C61.9338 13.8978 61.6399 13.751 61.3167 13.6434C61.0032 13.526 60.6702 13.4673 60.3176 13.4673C59.8474 13.4673 59.4311 13.5896 59.0687 13.8342C58.7161 14.069 58.4369 14.4017 58.2313 14.8322C58.0256 15.2529 57.9227 15.7469 57.9227 16.3144C57.9227 16.8623 58.0256 17.3515 58.2313 17.782C58.4369 18.2027 58.721 18.5354 59.0834 18.78C59.4458 19.0148 59.8523 19.1322 60.3029 19.1322Z" fill="white"/>
<path d="M68.4747 20.3062C68.0241 20.3062 67.6176 20.2231 67.2552 20.0567C66.8928 19.8806 66.6038 19.6018 66.3883 19.2202C66.1826 18.8387 66.0798 18.3446 66.0798 17.738V9.27002H67.4021V17.6059C67.4021 18.1342 67.5099 18.5256 67.7254 18.78C67.9506 19.0343 68.2592 19.1615 68.651 19.1615C68.8371 19.1615 69.0183 19.142 69.1946 19.1028C69.3807 19.0539 69.5374 19.0001 69.6648 18.9414L69.988 20.0127C69.8117 20.091 69.5913 20.1595 69.3268 20.2182C69.0722 20.2769 68.7881 20.3062 68.4747 20.3062Z" fill="white"/>
<path d="M74.2349 20.3062C73.5101 20.3062 72.8587 20.1399 72.2808 19.8073C71.7029 19.4648 71.2475 18.9952 70.9144 18.3984C70.5912 17.7918 70.4296 17.0971 70.4296 16.3144C70.4296 15.4926 70.5961 14.7832 70.9291 14.1864C71.2621 13.5896 71.7176 13.1298 72.2955 12.8069C72.8734 12.484 73.5199 12.3226 74.2349 12.3226C74.95 12.3226 75.5915 12.484 76.1596 12.8069C76.7375 13.1298 77.193 13.5896 77.526 14.1864C77.8689 14.7735 78.0403 15.473 78.0403 16.2851C78.0403 17.0971 77.8738 17.8065 77.5407 18.4131C77.2077 19.0099 76.7522 19.4746 76.1743 19.8073C75.6062 20.1399 74.9598 20.3062 74.2349 20.3062ZM74.2349 19.1322C75.0087 19.1322 75.6111 18.8729 76.0421 18.3544C76.4731 17.826 76.6886 17.146 76.6886 16.3144C76.6886 15.8057 76.5808 15.3409 76.3653 14.9202C76.1498 14.4897 75.856 14.1473 75.4838 13.8929C75.1214 13.6287 74.7051 13.4967 74.2349 13.4967C73.4611 13.4967 72.8587 13.751 72.4278 14.2598C71.9968 14.7686 71.7813 15.4436 71.7813 16.2851C71.7813 16.7938 71.889 17.2683 72.1045 17.7086C72.32 18.1391 72.609 18.4864 72.9714 18.7506C73.3436 19.005 73.7648 19.1322 74.2349 19.1322Z" fill="white"/>
<path d="M80.5794 20.1301V12.4987H81.8576V13.7755C82.1319 13.3646 82.4796 13.0221 82.9008 12.7482C83.3318 12.4645 83.8411 12.3226 84.4288 12.3226C85.2908 12.3226 85.9323 12.5819 86.3535 13.1004C86.7845 13.619 87 14.3038 87 15.155V20.1301H85.6777V15.3018C85.6777 14.7539 85.5454 14.3136 85.281 13.981C85.0263 13.6483 84.6688 13.482 84.2084 13.482C83.7579 13.482 83.3318 13.6434 82.9302 13.9663C82.5286 14.2794 82.1858 14.6512 81.9017 15.0816V20.1301H80.5794Z" fill="white"/>
<path d="M51.438 20.3062C50.723 20.3062 50.0716 20.2133 49.4839 20.0274C48.8962 19.8317 48.4016 19.5773 48 19.2643L48.7052 18.0902C49.0579 18.3837 49.4546 18.6234 49.8953 18.8093C50.3361 18.9952 50.8503 19.0881 51.438 19.0881C52.1433 19.0881 52.7016 18.9414 53.113 18.6479C53.5244 18.3544 53.7301 17.9581 53.7301 17.4591C53.7301 17.1754 53.6713 16.9259 53.5538 16.7107C53.4362 16.4856 53.206 16.2704 52.8632 16.0649C52.5302 15.8497 52.0355 15.6198 51.3793 15.3752C50.674 15.1012 50.1108 14.8273 49.6896 14.5533C49.2685 14.2696 48.9648 13.9516 48.7787 13.5994C48.6024 13.2374 48.5142 12.8118 48.5142 12.3226C48.5142 11.8334 48.6465 11.3931 48.9109 11.0018C49.1852 10.6006 49.5819 10.2827 50.101 10.0478C50.63 9.80324 51.2666 9.68094 52.011 9.68094C52.6183 9.68094 53.162 9.74454 53.6419 9.87173C54.1317 9.98913 54.6067 10.1604 55.0671 10.3854L54.5528 11.5741C54.2198 11.3784 53.828 11.217 53.3775 11.0898C52.9367 10.9528 52.4714 10.8844 51.9817 10.8844C51.3352 10.8844 50.8259 11.0115 50.4536 11.2659C50.0814 11.5203 49.8953 11.8481 49.8953 12.2492C49.8953 12.5036 49.9492 12.7286 50.0569 12.9243C50.1647 13.12 50.3753 13.3108 50.6887 13.4967C51.012 13.6825 51.4919 13.8929 52.1286 14.1277C52.8926 14.4114 53.495 14.7099 53.9358 15.0229C54.3863 15.336 54.7047 15.6785 54.8908 16.0502C55.0769 16.4123 55.1699 16.8281 55.1699 17.2977C55.1699 17.9336 55.0083 18.4767 54.6851 18.9267C54.3716 19.3768 53.9309 19.7192 53.3628 19.954C52.8044 20.1888 52.1629 20.3062 51.438 20.3062Z" stroke="#BDBDBD" stroke-width="2" mask="url(#path-1-outside-1_211_4)"/>
<path d="M60.009 20.3062C59.3724 20.3062 58.7945 20.1448 58.2753 19.8219C57.7562 19.4991 57.3399 19.0441 57.0265 18.4571C56.7228 17.8603 56.571 17.1607 56.571 16.3584C56.571 15.5953 56.7228 14.9104 57.0265 14.3038C57.3399 13.6972 57.766 13.2178 58.3047 12.8656C58.8532 12.5036 59.4801 12.3226 60.1854 12.3226C60.6261 12.3226 61.0228 12.4009 61.3754 12.5574C61.7379 12.7042 62.0513 12.8901 62.3158 13.1151V12.4987H63.5205V18.281C63.5205 18.6528 63.6087 18.8974 63.785 19.0148C63.9711 19.1224 64.1719 19.1762 64.3874 19.1762L64.1082 20.2035C63.1679 20.2035 62.5998 19.8219 62.4039 19.0588C62.1786 19.3719 61.8701 19.6605 61.4783 19.9247C61.0963 20.179 60.6065 20.3062 60.009 20.3062ZM60.3029 19.1322C60.6751 19.1322 61.0277 19.0441 61.3608 18.868C61.6938 18.6821 61.9729 18.4522 62.1982 18.1782V14.0837C61.9338 13.8978 61.6399 13.751 61.3167 13.6434C61.0032 13.526 60.6702 13.4673 60.3176 13.4673C59.8474 13.4673 59.4311 13.5896 59.0687 13.8342C58.7161 14.069 58.4369 14.4017 58.2313 14.8322C58.0256 15.2529 57.9227 15.7469 57.9227 16.3144C57.9227 16.8623 58.0256 17.3515 58.2313 17.782C58.4369 18.2027 58.721 18.5354 59.0834 18.78C59.4458 19.0148 59.8523 19.1322 60.3029 19.1322Z" stroke="#BDBDBD" stroke-width="2" mask="url(#path-1-outside-1_211_4)"/>
<path d="M68.4747 20.3062C68.0241 20.3062 67.6176 20.2231 67.2552 20.0567C66.8928 19.8806 66.6038 19.6018 66.3883 19.2202C66.1826 18.8387 66.0798 18.3446 66.0798 17.738V9.27002H67.4021V17.6059C67.4021 18.1342 67.5099 18.5256 67.7254 18.78C67.9506 19.0343 68.2592 19.1615 68.651 19.1615C68.8371 19.1615 69.0183 19.142 69.1946 19.1028C69.3807 19.0539 69.5374 19.0001 69.6648 18.9414L69.988 20.0127C69.8117 20.091 69.5913 20.1595 69.3268 20.2182C69.0722 20.2769 68.7881 20.3062 68.4747 20.3062Z" stroke="#BDBDBD" stroke-width="2" mask="url(#path-1-outside-1_211_4)"/>
<path d="M74.2349 20.3062C73.5101 20.3062 72.8587 20.1399 72.2808 19.8073C71.7029 19.4648 71.2475 18.9952 70.9144 18.3984C70.5912 17.7918 70.4296 17.0971 70.4296 16.3144C70.4296 15.4926 70.5961 14.7832 70.9291 14.1864C71.2621 13.5896 71.7176 13.1298 72.2955 12.8069C72.8734 12.484 73.5199 12.3226 74.2349 12.3226C74.95 12.3226 75.5915 12.484 76.1596 12.8069C76.7375 13.1298 77.193 13.5896 77.526 14.1864C77.8689 14.7735 78.0403 15.473 78.0403 16.2851C78.0403 17.0971 77.8738 17.8065 77.5407 18.4131C77.2077 19.0099 76.7522 19.4746 76.1743 19.8073C75.6062 20.1399 74.9598 20.3062 74.2349 20.3062ZM74.2349 19.1322C75.0087 19.1322 75.6111 18.8729 76.0421 18.3544C76.4731 17.826 76.6886 17.146 76.6886 16.3144C76.6886 15.8057 76.5808 15.3409 76.3653 14.9202C76.1498 14.4897 75.856 14.1473 75.4838 13.8929C75.1214 13.6287 74.7051 13.4967 74.2349 13.4967C73.4611 13.4967 72.8587 13.751 72.4278 14.2598C71.9968 14.7686 71.7813 15.4436 71.7813 16.2851C71.7813 16.7938 71.889 17.2683 72.1045 17.7086C72.32 18.1391 72.609 18.4864 72.9714 18.7506C73.3436 19.005 73.7648 19.1322 74.2349 19.1322Z" stroke="#BDBDBD" stroke-width="2" mask="url(#path-1-outside-1_211_4)"/>
<path d="M80.5794 20.1301V12.4987H81.8576V13.7755C82.1319 13.3646 82.4796 13.0221 82.9008 12.7482C83.3318 12.4645 83.8411 12.3226 84.4288 12.3226C85.2908 12.3226 85.9323 12.5819 86.3535 13.1004C86.7845 13.619 87 14.3038 87 15.155V20.1301H85.6777V15.3018C85.6777 14.7539 85.5454 14.3136 85.281 13.981C85.0263 13.6483 84.6688 13.482 84.2084 13.482C83.7579 13.482 83.3318 13.6434 82.9302 13.9663C82.5286 14.2794 82.1858 14.6512 81.9017 15.0816V20.1301H80.5794Z" stroke="#BDBDBD" stroke-width="2" mask="url(#path-1-outside-1_211_4)"/>
<g clip-path="url(#clip0_211_4)">
<path d="M39.375 1.11811C39.375 1.60296 39.7667 1.99599 40.25 1.99599H41.125C41.6083 1.99599 42 1.60296 42 1.11811C42 0.633275 41.6083 0.240234 41.125 0.240234H40.25C39.7667 0.240234 39.375 0.633275 39.375 1.11811Z" fill="white"/>
<path d="M14 28.3324H18.2506L17.0132 27.0909C16.685 26.7616 16.2399 26.5767 15.7758 26.5767H14C7.2345 26.5767 1.75 21.0741 1.75 14.2863C1.75 7.49855 7.2345 1.996 14 1.996H28C34.7655 1.996 40.25 7.49855 40.25 14.2863C40.25 21.0741 34.7655 26.5767 28 26.5767H22.7629C22.0667 26.5767 21.399 26.2992 20.9067 25.8053L19.457 24.3508C18.6365 23.5276 17.5237 23.0651 16.3633 23.0651H14C9.16748 23.0651 5.25 19.1348 5.25 14.2863C5.25 9.4379 9.16748 5.50752 14 5.50752H28C32.8325 5.50752 36.75 9.4379 36.75 14.2863C36.75 19.1348 32.8325 23.0651 28 23.0651H24.6373C23.941 23.0651 23.2734 22.7877 22.7811 22.2938L21.3313 20.8393C20.5108 20.0161 19.398 19.5536 18.2377 19.5536H14C11.1005 19.5536 8.75 17.1953 8.75 14.2863C8.75 11.3773 11.1005 9.01904 14 9.01904H28C30.8995 9.01904 33.25 11.3773 33.25 14.2863C33.25 17.1599 30.9564 19.496 28.1058 19.5526L28.1053 19.5536H26.8248C26.1285 19.5536 25.4609 19.2761 24.9686 18.7823L23.5188 17.3277C22.8456 16.6523 21.9756 16.2197 21.044 16.0862L21 16.0421H14C13.0335 16.0421 12.25 15.256 12.25 14.2863C12.25 13.3167 13.0335 12.5306 14 12.5306H28C28.9665 12.5306 29.75 13.3167 29.75 14.2863C29.75 15.256 28.9665 16.0421 28 16.0421H24.5L25.7375 17.2836C26.0656 17.6129 26.5107 17.7979 26.9748 17.7979H28C29.933 17.7979 31.5 16.2257 31.5 14.2863C31.5 12.347 29.933 10.7748 28 10.7748H14C12.067 10.7748 10.5 12.347 10.5 14.2863C10.5 16.2257 12.067 17.7979 14 17.7979H20.4252C21.1214 17.7979 21.7891 18.0753 22.2814 18.5692L23.7312 20.0237C24.5517 20.8469 25.6644 21.3094 26.8248 21.3094H28.4375V21.2959C32.0997 21.0693 35 18.0176 35 14.2863C35 10.4076 31.866 7.26328 28 7.26328H14C10.134 7.26328 7 10.4076 7 14.2863C7 18.1651 10.134 21.3094 14 21.3094H18.2377C18.9339 21.3094 19.6016 21.5869 20.0939 22.0807L21.5437 23.5353C22.3642 24.3584 23.4769 24.8209 24.6373 24.8209H28C33.799 24.8209 38.5 20.1044 38.5 14.2863C38.5 8.46823 33.799 3.75176 28 3.75176H14C8.20099 3.75176 3.5 8.46823 3.5 14.2863C3.5 20.1044 8.20099 24.8209 14 24.8209H16.3633C17.0596 24.8209 17.7272 25.0984 18.2195 25.5922L19.6693 27.0468C20.4898 27.87 21.6026 28.3324 22.7629 28.3324H28C35.732 28.3324 42 22.0438 42 14.2863C42 6.52888 35.732 0.240234 28 0.240234L14 0.240237C6.26801 0.240238 -6.75951e-07 6.52889 0 14.2863C6.75952e-07 22.0438 6.26802 28.3324 14 28.3324Z" fill="white"/>
</g>
<defs>
<clipPath id="clip0_211_4">
<rect width="42" height="28.0922" fill="white" transform="translate(0 0.240234)"/>
</clipPath>
</defs>
</svg>
