<svg width="42" height="29" viewBox="0 0 42 29" fill="none" xmlns="http://www.w3.org/2000/svg">
<g clip-path="url(#clip0_3_389)">
<path d="M39.375 1.11811C39.375 1.60296 39.7667 1.99599 40.25 1.99599H41.125C41.6083 1.99599 42 1.60296 42 1.11811C42 0.633275 41.6083 0.240234 41.125 0.240234H40.25C39.7667 0.240234 39.375 0.633275 39.375 1.11811Z" fill="white"/>
<path d="M14 28.3324H18.2506L17.0132 27.0909C16.685 26.7616 16.2399 26.5767 15.7758 26.5767H14C7.2345 26.5767 1.75 21.0741 1.75 14.2863C1.75 7.49855 7.2345 1.996 14 1.996H28C34.7655 1.996 40.25 7.49855 40.25 14.2863C40.25 21.0741 34.7655 26.5767 28 26.5767H22.7629C22.0667 26.5767 21.399 26.2992 20.9067 25.8053L19.457 24.3508C18.6365 23.5276 17.5237 23.0651 16.3633 23.0651H14C9.16748 23.0651 5.25 19.1348 5.25 14.2863C5.25 9.4379 9.16748 5.50752 14 5.50752H28C32.8325 5.50752 36.75 9.4379 36.75 14.2863C36.75 19.1348 32.8325 23.0651 28 23.0651H24.6373C23.941 23.0651 23.2734 22.7877 22.7811 22.2938L21.3313 20.8393C20.5108 20.0161 19.398 19.5536 18.2377 19.5536H14C11.1005 19.5536 8.75 17.1953 8.75 14.2863C8.75 11.3773 11.1005 9.01904 14 9.01904H28C30.8995 9.01904 33.25 11.3773 33.25 14.2863C33.25 17.1599 30.9564 19.496 28.1058 19.5526L28.1053 19.5536H26.8248C26.1285 19.5536 25.4609 19.2761 24.9686 18.7823L23.5188 17.3277C22.8456 16.6523 21.9756 16.2197 21.044 16.0862L21 16.0421H14C13.0335 16.0421 12.25 15.256 12.25 14.2863C12.25 13.3167 13.0335 12.5306 14 12.5306H28C28.9665 12.5306 29.75 13.3167 29.75 14.2863C29.75 15.256 28.9665 16.0421 28 16.0421H24.5L25.7375 17.2836C26.0656 17.6129 26.5107 17.7979 26.9748 17.7979H28C29.933 17.7979 31.5 16.2257 31.5 14.2863C31.5 12.347 29.933 10.7748 28 10.7748H14C12.067 10.7748 10.5 12.347 10.5 14.2863C10.5 16.2257 12.067 17.7979 14 17.7979H20.4252C21.1214 17.7979 21.7891 18.0753 22.2814 18.5692L23.7312 20.0237C24.5517 20.8469 25.6644 21.3094 26.8248 21.3094H28.4375V21.2959C32.0997 21.0693 35 18.0176 35 14.2863C35 10.4076 31.866 7.26328 28 7.26328H14C10.134 7.26328 7 10.4076 7 14.2863C7 18.1651 10.134 21.3094 14 21.3094H18.2377C18.9339 21.3094 19.6016 21.5869 20.0939 22.0807L21.5437 23.5353C22.3642 24.3584 23.4769 24.8209 24.6373 24.8209H28C33.799 24.8209 38.5 20.1044 38.5 14.2863C38.5 8.46823 33.799 3.75176 28 3.75176H14C8.20099 3.75176 3.5 8.46823 3.5 14.2863C3.5 20.1044 8.20099 24.8209 14 24.8209H16.3633C17.0596 24.8209 17.7272 25.0984 18.2195 25.5922L19.6693 27.0468C20.4898 27.87 21.6026 28.3324 22.7629 28.3324H28C35.732 28.3324 42 22.0438 42 14.2863C42 6.52888 35.732 0.240234 28 0.240234L14 0.240237C6.26801 0.240238 -6.75951e-07 6.52889 0 14.2863C6.75952e-07 22.0438 6.26802 28.3324 14 28.3324Z" fill="white"/>
</g>
<defs>
<clipPath id="clip0_3_389">
<rect width="42" height="28.0922" fill="white" transform="translate(0 0.240234)"/>
</clipPath>
</defs>
</svg>
